<svg width="50" height="50" viewBox="0 0 50 50" fill="none" xmlns="http://www.w3.org/2000/svg">
<path d="M11.4583 41.6666C8.4194 41.6666 5.50492 40.4594 3.35607 38.3106C1.20721 36.1617 0 33.2472 0 30.2083C0 27.1694 1.20721 24.2549 3.35607 22.106C5.50492 19.9572 8.4194 18.75 11.4583 18.75C13.5417 13.8541 18.3333 10.4166 23.9583 10.4166C31.1042 10.4166 36.9583 15.9583 37.5 22.9791L38.5417 22.9166C43.75 22.9166 47.9167 27.0833 47.9167 32.2916C47.9167 37.5 43.75 41.6666 38.5417 41.6666H11.4583ZM11.4583 20.8333C6.25 20.8333 2.08333 25 2.08333 30.2083C2.08333 35.4166 6.25 39.5833 11.4583 39.5833H38.5417C40.4755 39.5833 42.3302 38.8151 43.6977 37.4476C45.0651 36.0802 45.8333 34.2255 45.8333 32.2916C45.8333 30.3578 45.0651 28.5031 43.6977 27.1356C42.3302 25.7682 40.4755 25 38.5417 25C37.375 25 36.25 25.2708 35.2708 25.7708C35.4167 25.1875 35.4167 24.5833 35.4167 23.9583C35.4167 20.9194 34.2095 18.0049 32.0606 15.856C29.9117 13.7072 26.9973 12.5 23.9583 12.5C21.445 12.5014 19.0016 13.3276 17.0032 14.8518C15.0047 16.376 13.5618 18.514 12.8958 20.9375L11.4583 20.8333Z" fill="black"/>
</svg>
