<svg width="50" height="50" viewBox="0 0 50 50" fill="none" xmlns="http://www.w3.org/2000/svg">
<path d="M26.7891 1.78577C28.4467 1.78577 30.0364 2.44425 31.2085 3.61635C32.3806 4.78845 33.0391 6.37816 33.0391 8.03577C33.0391 9.69337 32.3806 11.2831 31.2085 12.4552C30.0364 13.6273 28.4467 14.2858 26.7891 14.2858H1.78906M41.9676 37.5001C43.6252 37.5001 45.2149 36.8416 46.3871 35.6695C47.5592 34.4974 48.2176 32.9077 48.2176 31.2501C48.2176 29.5924 47.5592 28.0027 46.3871 26.8306C45.2149 25.6585 43.6252 25.0001 41.9676 25.0001H7.14621M25.8962 48.2143C27.5538 48.2143 29.1435 47.5559 30.3156 46.3838C31.4877 45.2117 32.1462 43.6219 32.1462 41.9643C32.1462 40.3067 31.4877 38.717 30.3156 37.5449C29.1435 36.3728 27.5538 35.7143 25.8962 35.7143H5.36049" stroke="black" stroke-linecap="round" stroke-linejoin="round"/>
</svg>
