<svg width="36" height="36" viewBox="0 0 36 36" fill="none" xmlns="http://www.w3.org/2000/svg">
<path d="M10.25 30.5631C11.5762 30.5631 12.8482 30.0363 13.786 29.0985M10.25 30.5631C8.92375 30.5631 7.65182 30.0363 6.71402 29.0985M10.25 30.5631V34.3125M13.786 29.0985C14.7238 28.1607 15.2506 26.8888 15.2506 25.5625M13.786 29.0985L16.4377 31.7502M15.2506 25.5625C15.2506 24.2363 14.7238 22.9643 13.786 22.0265M15.2506 25.5625H19M13.786 22.0265C12.8482 21.0887 11.5762 20.5619 10.25 20.5619M13.786 22.0265L16.4377 19.3748M10.25 20.5619C8.92375 20.5619 7.65182 21.0887 6.71402 22.0265M10.25 20.5619V16.8125M6.71402 22.0265C5.77622 22.9643 5.24938 24.2363 5.24938 25.5625M6.71402 22.0265L4.06229 19.3748M5.24938 25.5625C5.24938 26.8888 5.77622 28.1607 6.71402 29.0985M5.24938 25.5625H1.5M6.71402 29.0985L4.06229 31.7502M9.41729 16.8125H11.0827M15.8485 18.7856L17.0269 19.964M19 24.7298V26.3952M17.0269 31.161L15.8485 32.3394M11.0827 34.3125H9.41729M4.65146 32.3394L3.47312 31.161M1.5 26.3952V24.7298M3.47312 19.964L4.65146 18.7856M27.0208 5.14584C27.0208 4.42476 27.2347 3.71987 27.6353 3.12032C28.0359 2.52076 28.6053 2.05347 29.2715 1.77752C29.9377 1.50158 30.6707 1.42938 31.3779 1.57006C32.0852 1.71073 32.7348 2.05796 33.2447 2.56784C33.7545 3.07772 34.1018 3.72735 34.2424 4.43457C34.3831 5.14179 34.3109 5.87485 34.035 6.54104C33.759 7.20722 33.2917 7.77662 32.6922 8.17723C32.0926 8.57784 31.3877 8.79167 30.6667 8.79167H2.22917M24.8333 21.1875C24.8333 21.9086 25.0472 22.6135 25.4478 23.213C25.8484 23.8126 26.4178 24.2799 27.084 24.5558C27.7502 24.8318 28.4832 24.904 29.1904 24.7633C29.8977 24.6226 30.5473 24.2754 31.0572 23.7655C31.567 23.2556 31.9143 22.606 32.0549 21.8988C32.1956 21.1915 32.1234 20.4585 31.8475 19.7923C31.5715 19.1261 31.1042 18.5567 30.5047 18.1561C29.9051 17.7555 29.2002 17.5417 28.4792 17.5417H21.1875M2.22917 13.1667H26.2917" stroke="#19635E" stroke-width="3" stroke-linecap="round" stroke-linejoin="round"/>
</svg>
