<svg width="48" height="48" viewBox="0 0 48 48" fill="none" xmlns="http://www.w3.org/2000/svg">
<path d="M10 16V38H38V16H32V32L24 28L16 32V16H10ZM10 42C8.9 42 7.95867 41.6087 7.176 40.826C6.39333 40.0433 6.00133 39.1013 6 38V13.05C6 12.5833 6.07533 12.1333 6.226 11.7C6.37667 11.2667 6.60133 10.8667 6.9 10.5L9.4 7.45001C9.76667 6.98334 10.2247 6.62468 10.774 6.37401C11.3233 6.12334 11.8987 5.99868 12.5 6.00001H35.5C36.1 6.00001 36.6753 6.12534 37.226 6.37601C37.7767 6.62668 38.2347 6.98468 38.6 7.45001L41.1 10.5C41.4 10.8667 41.6253 11.2667 41.776 11.7C41.9267 12.1333 42.0013 12.5833 42 13.05V38C42 39.1 41.6087 40.042 40.826 40.826C40.0433 41.61 39.1013 42.0013 38 42H10ZM10.8 12H37.2L35.5 10H12.5L10.8 12ZM20 16V25.5L24 23.5L28 25.5V16H20Z" fill="#19635E"/>
</svg>
