<svg width="48" height="48" viewBox="0 0 48 48" fill="none" xmlns="http://www.w3.org/2000/svg">
<path d="M10.8 39.2C9.3 37.7 8.12467 35.9666 7.274 34C6.42334 32.0333 5.99867 30 6 27.9C6.00134 25.8 6.40134 23.7253 7.2 21.676C7.99867 19.6266 9.29867 17.7013 11.1 15.9C12.2667 14.7333 13.7087 13.7333 15.426 12.9C17.1433 12.0666 19.1767 11.4086 21.526 10.926C23.8753 10.4433 26.5587 10.1513 29.576 10.05C32.5933 9.94864 35.968 10.0653 39.7 10.4C39.9667 13.9333 40.05 17.1833 39.95 20.15C39.85 23.1166 39.5747 25.792 39.124 28.176C38.6733 30.56 38.04 32.6426 37.224 34.424C36.408 36.2053 35.4 37.6973 34.2 38.9C32.4333 40.6666 30.5587 41.9586 28.576 42.776C26.5933 43.5933 24.568 44.0013 22.5 44C20.3333 44 18.2167 43.5746 16.15 42.724C14.0833 41.8733 12.3 40.6986 10.8 39.2ZM16.4 38.4C17.3667 38.9666 18.3587 39.3753 19.376 39.626C20.3933 39.8766 21.4347 40.0013 22.5 40C24.0333 40 25.55 39.692 27.05 39.076C28.55 38.46 29.9833 37.468 31.35 36.1C31.95 35.5 32.5587 34.658 33.176 33.574C33.7933 32.49 34.3267 31.074 34.776 29.326C35.2253 27.578 35.5667 25.4613 35.8 22.976C36.0333 20.4906 36.0667 17.532 35.9 14.1C34.2667 14.0333 32.4253 14.0086 30.376 14.026C28.3267 14.0433 26.2847 14.2013 24.25 14.5C22.2153 14.7986 20.282 15.282 18.45 15.95C16.618 16.618 15.118 17.5346 13.95 18.7C12.45 20.2 11.4167 21.6833 10.85 23.15C10.2833 24.6166 10 26.0333 10 27.4C10 29.3666 10.3753 31.092 11.126 32.576C11.8767 34.06 12.5347 35.1013 13.1 35.7C14.5 33.0333 16.35 30.4746 18.65 28.024C20.95 25.5733 23.6333 23.5653 26.7 22C24.3 24.1 22.2087 26.4753 20.426 29.126C18.6433 31.7766 17.3013 34.868 16.4 38.4Z" fill="#19635E"/>
</svg>
