<svg width="29" height="29" viewBox="0 0 29 29" fill="none" xmlns="http://www.w3.org/2000/svg">
<path d="M4 24.3211C2.75 23.0711 1.77056 21.6267 1.06167 19.9878C0.352781 18.3489 -0.0011085 16.6544 2.60824e-06 14.9044C0.00111372 13.1544 0.334447 11.4256 1 9.71777C1.66556 8.01 2.74889 6.40555 4.25 4.90444C5.22223 3.93222 6.42389 3.09888 7.855 2.40444C9.28611 1.70999 10.9806 1.16166 12.9383 0.759439C14.8961 0.357217 17.1322 0.113884 19.6467 0.0294394C22.1611 -0.055005 24.9733 0.0422167 28.0833 0.321106C28.3056 3.26555 28.375 5.97388 28.2917 8.44611C28.2083 10.9183 27.9789 13.1478 27.6033 15.1344C27.2278 17.1211 26.7 18.8567 26.02 20.3411C25.34 21.8256 24.5 23.0689 23.5 24.0711C22.0278 25.5433 20.4656 26.62 18.8133 27.3011C17.1611 27.9822 15.4733 28.3222 13.75 28.3211C11.9444 28.3211 10.1806 27.9667 8.45834 27.2578C6.73611 26.5489 5.25 25.57 4 24.3211ZM8.66667 23.6544C9.47222 24.1267 10.2989 24.4672 11.1467 24.6761C11.9944 24.885 12.8622 24.9889 13.75 24.9878C15.0278 24.9878 16.2917 24.7311 17.5417 24.2178C18.7917 23.7044 19.9861 22.8778 21.125 21.7378C21.625 21.2378 22.1322 20.5361 22.6467 19.6328C23.1611 18.7294 23.6056 17.5494 23.98 16.0928C24.3544 14.6361 24.6389 12.8722 24.8333 10.8011C25.0278 8.72999 25.0556 6.26444 24.9167 3.40444C23.5556 3.34888 22.0211 3.32833 20.3133 3.34277C18.6056 3.35722 16.9039 3.48888 15.2083 3.73777C13.5128 3.98666 11.9017 4.38944 10.375 4.94611C8.84834 5.50277 7.59834 6.26666 6.625 7.23777C5.375 8.48777 4.51389 9.72388 4.04167 10.9461C3.56945 12.1683 3.33334 13.3489 3.33334 14.4878C3.33334 16.1267 3.64611 17.5644 4.27167 18.8011C4.89723 20.0378 5.44556 20.9056 5.91667 21.4044C7.08334 19.1822 8.625 17.05 10.5417 15.0078C12.4583 12.9656 14.6944 11.2922 17.25 9.98777C15.25 11.7378 13.5072 13.7172 12.0217 15.9261C10.5361 18.135 9.41778 20.7111 8.66667 23.6544Z" fill="#115E59"/>
</svg>
