<svg width="34" height="34" viewBox="0 0 34 34" fill="none" xmlns="http://www.w3.org/2000/svg">
<path d="M9.66667 0H23.6667C29 0 33.3333 4.38472 33.3333 9.78129V23.9473C33.3333 26.5415 32.3149 29.0294 30.502 30.8637C28.6892 32.6981 26.2304 33.7286 23.6667 33.7286H9.66667C4.33333 33.7286 0 29.3439 0 23.9473V9.78129C0 7.18713 1.01845 4.69922 2.8313 2.86487C4.64415 1.03053 7.10291 0 9.66667 0ZM9.33333 3.37286C7.74203 3.37286 6.21591 4.0125 5.09069 5.15106C3.96547 6.28962 3.33333 7.83384 3.33333 9.444V24.2846C3.33333 27.6406 6.01667 30.3557 9.33333 30.3557H24C25.5913 30.3557 27.1174 29.7161 28.2426 28.5775C29.3679 27.439 30 25.8948 30 24.2846V9.444C30 6.08801 27.3167 3.37286 24 3.37286H9.33333ZM25.4167 5.9025C25.9692 5.9025 26.4991 6.1246 26.8898 6.51993C27.2805 6.91527 27.5 7.45145 27.5 8.01054C27.5 8.56963 27.2805 9.10581 26.8898 9.50115C26.4991 9.89648 25.9692 10.1186 25.4167 10.1186C24.8641 10.1186 24.3342 9.89648 23.9435 9.50115C23.5528 9.10581 23.3333 8.56963 23.3333 8.01054C23.3333 7.45145 23.5528 6.91527 23.9435 6.51993C24.3342 6.1246 24.8641 5.9025 25.4167 5.9025ZM16.6667 8.43215C18.8768 8.43215 20.9964 9.32053 22.5592 10.9019C24.122 12.4832 25 14.6279 25 16.8643C25 19.1006 24.122 21.2454 22.5592 22.8267C20.9964 24.4081 18.8768 25.2964 16.6667 25.2964C14.4565 25.2964 12.3369 24.4081 10.7741 22.8267C9.21131 21.2454 8.33333 19.1006 8.33333 16.8643C8.33333 14.6279 9.21131 12.4832 10.7741 10.9019C12.3369 9.32053 14.4565 8.43215 16.6667 8.43215ZM16.6667 11.805C15.3406 11.805 14.0688 12.338 13.1311 13.2868C12.1934 14.2356 11.6667 15.5225 11.6667 16.8643C11.6667 18.2061 12.1934 19.493 13.1311 20.4418C14.0688 21.3906 15.3406 21.9236 16.6667 21.9236C17.9927 21.9236 19.2645 21.3906 20.2022 20.4418C21.1399 19.493 21.6667 18.2061 21.6667 16.8643C21.6667 15.5225 21.1399 14.2356 20.2022 13.2868C19.2645 12.338 17.9927 11.805 16.6667 11.805Z" fill="white"/>
</svg>
