<svg width="8" height="8" viewBox="0 0 8 8" fill="none" xmlns="http://www.w3.org/2000/svg">
<path d="M3.9974 3.83341C3.77638 3.83341 3.56442 3.74562 3.40814 3.58934C3.25186 3.43306 3.16406 3.2211 3.16406 3.00008C3.16406 2.77907 3.25186 2.56711 3.40814 2.41083C3.56442 2.25455 3.77638 2.16675 3.9974 2.16675C4.21841 2.16675 4.43037 2.25455 4.58665 2.41083C4.74293 2.56711 4.83073 2.77907 4.83073 3.00008C4.83073 3.10952 4.80917 3.21788 4.7673 3.31898C4.72542 3.42009 4.66403 3.51195 4.58665 3.58934C4.50927 3.66672 4.4174 3.7281 4.3163 3.76998C4.21519 3.81186 4.10683 3.83341 3.9974 3.83341ZM3.9974 0.666748C3.37856 0.666748 2.78506 0.912581 2.34748 1.35017C1.9099 1.78775 1.66406 2.38124 1.66406 3.00008C1.66406 4.75008 3.9974 7.33341 3.9974 7.33341C3.9974 7.33341 6.33073 4.75008 6.33073 3.00008C6.33073 2.38124 6.0849 1.78775 5.64731 1.35017C5.20973 0.912581 4.61623 0.666748 3.9974 0.666748Z" fill="#262018" fill-opacity="0.75"/>
</svg>
