<svg width="40" height="40" viewBox="0 0 40 40" fill="none" xmlns="http://www.w3.org/2000/svg">
<path d="M2 20C2 22.3638 2.46558 24.7044 3.37017 26.8883C4.27475 29.0722 5.60062 31.0565 7.27208 32.7279C8.94353 34.3994 10.9278 35.7252 13.1117 36.6298C15.2956 37.5344 17.6362 38 20 38C22.3638 38 24.7044 37.5344 26.8883 36.6298C29.0722 35.7252 31.0565 34.3994 32.7279 32.7279C34.3994 31.0565 35.7252 29.0722 36.6298 26.8883C37.5344 24.7044 38 22.3638 38 20C38 15.2261 36.1036 10.6477 32.7279 7.27208C29.3523 3.89642 24.7739 2 20 2C15.2261 2 10.6477 3.89642 7.27208 7.27208C3.89642 10.6477 2 15.2261 2 20Z" stroke="#19635E" stroke-width="4" stroke-linecap="round" stroke-linejoin="round"/>
</svg>
