<svg width="8" height="8" viewBox="0 0 8 8" fill="none" xmlns="http://www.w3.org/2000/svg">
<path d="M1.33073 6.66659C1.1474 6.66659 0.990507 6.60136 0.860063 6.47092C0.729618 6.34047 0.664285 6.18347 0.664062 5.99992V1.99992C0.664062 1.81659 0.729396 1.6597 0.860063 1.52925C0.990729 1.39881 1.14762 1.33347 1.33073 1.33325H6.66406C6.8474 1.33325 7.0044 1.39859 7.13506 1.52925C7.26573 1.65992 7.33095 1.81681 7.33073 1.99992V5.99992C7.33073 6.18325 7.26551 6.34025 7.13506 6.47092C7.00462 6.60159 6.84762 6.66681 6.66406 6.66659H1.33073ZM4.08506 4.26259C4.11551 4.25414 4.14462 4.24159 4.1724 4.22492L6.53073 2.74992C6.57517 2.72214 6.60851 2.68747 6.63073 2.64592C6.65295 2.60436 6.66406 2.55847 6.66406 2.50825C6.66406 2.39714 6.61684 2.31381 6.5224 2.25825C6.42795 2.2027 6.33073 2.20547 6.23073 2.26659L3.9974 3.66659L1.76406 2.26659C1.66406 2.20547 1.56684 2.20414 1.4724 2.26259C1.37795 2.32103 1.33073 2.40292 1.33073 2.50825C1.33073 2.56381 1.34184 2.61247 1.36406 2.65425C1.38628 2.69603 1.41962 2.72792 1.46406 2.74992L3.8224 4.22492C3.85017 4.24159 3.8794 4.25414 3.91006 4.26259C3.94073 4.27103 3.96984 4.27514 3.9974 4.27492C4.02495 4.2747 4.05417 4.27059 4.08506 4.26259Z" fill="#262018" fill-opacity="0.75"/>
</svg>
