<svg width="8" height="8" viewBox="0 0 8 8" fill="none" xmlns="http://www.w3.org/2000/svg">
<path d="M6.65 7C5.95556 7 5.26944 6.84867 4.59167 6.546C3.91389 6.24333 3.29722 5.81411 2.74167 5.25833C2.18611 4.70256 1.757 4.08589 1.45433 3.40833C1.15167 2.73078 1.00022 2.04467 1 1.35C1 1.25 1.03333 1.16667 1.1 1.1C1.16667 1.03333 1.25 1 1.35 1H2.7C2.77778 1 2.84722 1.02644 2.90833 1.07933C2.96944 1.13222 3.00556 1.19467 3.01667 1.26667L3.23333 2.43333C3.24444 2.52222 3.24167 2.59722 3.225 2.65833C3.20833 2.71944 3.17778 2.77222 3.13333 2.81667L2.325 3.63333C2.43611 3.83889 2.568 4.03744 2.72067 4.229C2.87333 4.42056 3.04144 4.60533 3.225 4.78333C3.39722 4.95556 3.57778 5.11533 3.76667 5.26267C3.95556 5.41 4.15556 5.54467 4.36667 5.66667L5.15 4.88333C5.2 4.83333 5.26533 4.79589 5.346 4.771C5.42667 4.74611 5.50578 4.73911 5.58333 4.75L6.73333 4.98333C6.81111 5.00556 6.875 5.04589 6.925 5.10433C6.975 5.16278 7 5.228 7 5.3V6.65C7 6.75 6.96667 6.83333 6.9 6.9C6.83333 6.96667 6.75 7 6.65 7Z" fill="#262018" fill-opacity="0.75"/>
</svg>
