<svg width="18" height="32" viewBox="0 0 18 32" fill="none" xmlns="http://www.w3.org/2000/svg">
<path d="M8.51692 32C6.14496 32 4.13284 31.224 2.48055 29.672C0.826851 28.1173 0 26.2267 0 24C0 22.5547 0.3861 21.23 1.1583 20.026C1.9305 18.822 2.96389 17.8393 4.25846 17.078V4C4.25846 2.872 4.66798 1.92333 5.48703 1.154C6.30607 0.384667 7.31604 0 8.51692 0C9.71781 0 10.7278 0.384667 11.5468 1.154C12.3659 1.92333 12.7754 2.872 12.7754 4V17.078C14.07 17.838 15.0962 18.8207 15.8543 20.026C16.6137 21.23 17.0069 22.5547 17.0338 24C17.0055 26.228 16.1651 28.1187 14.5128 29.672C12.8606 31.2253 10.8619 32.0013 8.51692 32ZM8.51692 30C10.2913 30 11.7995 29.4167 13.0415 28.25C14.2836 27.0833 14.9046 25.6667 14.9046 24C14.9046 23.0333 14.6832 22.1333 14.2403 21.3C13.7974 20.4667 13.1672 19.7667 12.3495 19.2L10.6462 18V4C10.6462 3.43333 10.4417 2.95867 10.0329 2.576C9.62412 2.19333 9.11879 2.00133 8.51692 2C7.91506 1.99867 7.40972 2.19067 7.00091 2.576C6.5921 2.96133 6.38769 3.436 6.38769 4V18L4.68431 19.2C3.8681 19.7667 3.23785 20.4667 2.79355 21.3C2.34925 22.1333 2.12781 23.0333 2.12923 24C2.12923 25.6667 2.75026 27.0833 3.99231 28.25C5.23436 29.4167 6.74256 30 8.51692 30Z" fill="#115830"/>
</svg>
