<svg width="31" height="28" viewBox="0 0 31 28" fill="none" xmlns="http://www.w3.org/2000/svg">
<path d="M28.537 6.03499C28.387 6.59151 27.7203 7.99125 26.587 9.32353C25.837 23.9617 11.8036 28.7175 2.18696 23.81C0.870291 22.0392 6.93696 22.7644 9.15362 19.3746C0.770292 15.0405 1.43696 3.45475 3.12029 3.92695C7.07029 9.30666 13.437 9.79573 14.4703 9.30666C14.4703 8.07557 13.9536 5.39415 16.8203 3.1512C18.4703 1.95383 21.9203 0.891381 25.037 4.31483C25.5703 4.66898 26.337 4.82076 27.487 4.5678C28.1703 4.21365 29.0703 4.44975 28.6036 5.68084L28.537 6.03499Z" stroke="white" stroke-width="4" stroke-linecap="round" stroke-linejoin="round"/>
</svg>
